# xmcd
#
# Track frame offsets: 
#        150
#        12729
#        31018
#        42594
#        54022
#        74013
#        88874
#        101055
#        115763
#        134962
#        147704
#        161031
#        184007
#        211865
#
# Disc length: 3069 seconds
#
# Revision: 2
# Processed by: cddbd v1.5.2PL0 Copyright (c) Steve Scherf et al.
# Submitted via: ExactAudioCopy v1.0b3
#
DISCID=d50bfb0e
DTITLE=Hoffmann, Ingfried - Hammond Bond
DYEAR=1966
DGENRE=Jazz
TTITLE0=Thunderball
TTITLE1=Yeah, Dr. No
TTITLE2=Goldfinger
TTITLE3=007 Bond Street
TTITLE4=James Only Lives Twice
TTITLE5=Midnight Bossa Nova
TTITLE6=From Russia With Love
TTITLE7=Sharp Sharks
TTITLE8=TV-Swing
TTITLE9=Playgirl
TTITLE10=Phantom's Walk
TTITLE11=Vabanque At Casino Royale
TTITLE12=Soul Twist
TTITLE13=Let Live And Let Die
EXTD=YEAR: 1966
EXTT0=
EXTT1=
EXTT2=
EXTT3=
EXTT4=
EXTT5=
EXTT6=
EXTT7=
EXTT8=
EXTT9=
EXTT10=
EXTT11=
EXTT12=
EXTT13=
PLAYORDER=
